<?xml version="1.0" standalone="no"?>
<!DOCTYPE svg PUBLIC "-//W3C//DTD SVG 20010904//EN"
 "http://www.w3.org/TR/2001/REC-SVG-20010904/DTD/svg10.dtd">
<svg version="1.0" xmlns="http://www.w3.org/2000/svg"
 width="664.000000pt" height="664.000000pt" viewBox="0 0 664.000000 664.000000"
 preserveAspectRatio="xMidYMid meet">
<metadata>
Created by potrace 1.14, written by Peter Selinger 2001-2017
</metadata>
<g transform="translate(0.000000,664.000000) scale(0.100000,-0.100000)"
fill="#000000" stroke="none">
<path d="M2260 5293 c-57 -87 -155 -237 -218 -333 -63 -96 -162 -247 -220
-335 -184 -279 -411 -624 -521 -793 -58 -89 -182 -278 -276 -420 -93 -142
-213 -323 -265 -403 -325 -496 -382 -580 -395 -585 -8 -4 -15 -12 -15 -19 0
-12 99 -105 250 -235 41 -35 98 -85 125 -110 28 -25 82 -72 120 -105 150 -128
183 -167 321 -369 l139 -205 55 -11 c93 -17 150 -28 270 -50 122 -22 247 -45
425 -79 61 -11 121 -22 135 -25 14 -2 88 -16 165 -30 77 -14 178 -33 225 -42
47 -8 117 -21 155 -29 39 -7 124 -23 190 -35 66 -12 163 -30 215 -40 98 -20
104 -21 205 -40 251 -47 442 -83 510 -95 44 -9 94 -18 110 -21 17 -3 75 -14
130 -25 55 -11 118 -22 140 -25 52 -7 157 -25 390 -69 232 -43 245 -44 245
-10 0 14 27 91 61 172 33 82 85 209 115 283 30 74 60 140 65 146 5 7 9 16 8
20 -4 22 2 42 19 60 9 10 39 73 66 139 27 66 74 181 104 255 30 74 55 141 55
148 0 6 4 12 9 12 4 0 8 5 8 10 0 6 7 27 16 48 10 20 18 42 20 47 1 6 14 39
28 74 14 36 26 70 26 77 0 6 6 17 14 23 8 7 18 27 22 44 3 18 12 43 19 57 7
14 17 36 22 50 6 14 24 59 42 100 17 41 31 78 31 82 0 4 11 31 24 60 53 120
71 162 72 167 2 12 16 47 45 108 16 35 29 66 29 71 0 5 16 46 36 93 56 135 76
182 91 219 8 19 23 52 34 73 11 20 17 37 13 37 -3 0 1 11 10 25 9 13 16 34 16
45 0 26 48 149 66 170 7 8 13 18 13 23 0 4 21 49 45 100 48 97 206 484 206
502 0 6 -39 31 -87 56 -250 128 -350 184 -372 204 l-24 23 27 66 c31 78 32 93
9 100 -16 5 -283 59 -888 181 -121 24 -398 81 -615 125 -217 44 -460 94 -540
110 -80 16 -332 67 -560 114 -767 156 -867 176 -887 176 -14 0 -48 -45 -123
-157z"/>
</g>
</svg>
